<svg width="87" height="85" viewBox="0 0 87 85" fill="none" xmlns="http://www.w3.org/2000/svg">
<rect x="16.772" y="15.341" width="54.0732" height="54.0732" rx="27.0366" fill="#D0E4FC"/>
<path fill-rule="evenodd" clip-rule="evenodd" d="M43.516 45.1569L43.191 44.2923C42.7577 43.2116 42.6493 43.3197 43.6243 43.9681L46.6575 46.0214C48.3908 47.2102 48.0658 46.8859 46.1159 48.0747L42.216 50.5603C41.241 51.2087 41.241 51.3167 41.7827 50.2361L42.3243 48.9392C39.7244 49.0473 37.0162 49.0473 34.3079 48.7231C37.4495 49.3715 38.4244 49.5876 41.3494 49.6957L40.6994 51.5329C83.3814 33.9178 54.674 36.0792 41.3494 39.6454L41.891 40.5099C42.4327 41.4826 42.541 41.3745 41.4577 40.9422L38.0995 39.4293C36.1495 38.5647 36.5828 38.8889 38.3161 37.376L41.6744 34.242C42.541 33.4855 42.4327 33.3775 42.1077 34.5662L41.7827 35.863C44.2743 35.3227 47.0909 34.7823 49.6908 34.6743C46.5492 34.5662 45.4659 34.5662 42.541 34.9985L42.9743 32.9452C22.7166 42.131 13.7252 49.5876 43.516 45.1569Z" fill="#06186E"/>
<rect x="50.6929" y="4" width="34" height="34" rx="17" fill="white"/>
<g clip-path="url(#clip0_1075_13913)">
<path opacity="0.3" d="M64.5726 14H61.9326L60.4326 17H63.0726L64.5726 14Z" fill="#D0E4FC"/>
<path opacity="0.3" d="M74.9525 17L73.4525 14H70.8125L72.3125 17H74.9525Z" fill="#D0E4FC"/>
<path opacity="0.3" d="M66.6923 25.68V19H61.1323L66.6923 25.68Z" fill="#D0E4FC"/>
<path opacity="0.3" d="M68.6924 25.68L74.2524 19H68.6924V25.68Z" fill="#D0E4FC"/>
<path opacity="0.3" d="M68.5725 14H66.8125L65.3125 17H70.0725L68.5725 14Z" fill="#D0E4FC"/>
<path d="M74.6924 12H60.6924L57.6924 18L67.6924 30L77.6924 18L74.6924 12ZM73.4524 14L74.9524 17H72.3024L70.8024 14H73.4524ZM61.9324 14H64.5824L63.0824 17H60.4324L61.9324 14ZM66.6924 25.68L61.1324 19H66.6924V25.68ZM65.3124 17L66.8124 14H68.5724L70.0724 17H65.3124ZM68.6924 25.68V19H74.2524L68.6924 25.68Z" fill="#00ACC1"/>
</g>
<defs>
<clipPath id="clip0_1075_13913">
<rect width="24" height="24" fill="white" transform="translate(55.6924 9)"/>
</clipPath>
</defs>
</svg>
