<svg width="87" height="85" viewBox="0 0 87 85" fill="none" xmlns="http://www.w3.org/2000/svg">
<rect x="16.3101" y="15.341" width="54.0732" height="54.0732" rx="27.0366" fill="#D0E4FC"/>
<path fill-rule="evenodd" clip-rule="evenodd" d="M43.054 45.1569L42.7291 44.2923C42.2957 43.2116 42.1874 43.3197 43.1624 43.9681L46.1956 46.0214C47.9289 47.2102 47.6039 46.8859 45.654 48.0747L41.7541 50.5603C40.7791 51.2087 40.7791 51.3167 41.3208 50.2361L41.8624 48.9392C39.2625 49.0473 36.5542 49.0473 33.846 48.7231C36.9876 49.3715 37.9625 49.5876 40.8874 49.6957L40.2375 51.5329C82.9195 33.9178 54.212 36.0792 40.8874 39.6454L41.4291 40.5099C41.9707 41.4826 42.0791 41.3745 40.9958 40.9422L37.6375 39.4293C35.6876 38.5647 36.1209 38.8889 37.8542 37.376L41.2124 34.242C42.0791 33.4855 41.9707 33.3775 41.6458 34.5662L41.3208 35.863C43.8124 35.3227 46.6289 34.7823 49.2289 34.6743C46.0873 34.5662 45.004 34.5662 42.0791 34.9985L42.5124 32.9452C22.2547 42.131 13.2633 49.5876 43.054 45.1569Z" fill="#06186E"/>
<rect x="50.231" y="4" width="34" height="34" rx="17" fill="white"/>
<g clip-path="url(#clip0_1075_13887)">
<path opacity="0.3" d="M71.731 14C70.191 14 68.691 14.99 68.171 16.36H66.301C65.771 14.99 64.271 14 62.731 14C60.731 14 59.231 15.5 59.231 17.5C59.231 20.39 62.371 23.24 67.131 27.55L67.231 27.65L67.331 27.55C72.091 23.24 75.231 20.39 75.231 17.5C75.231 15.5 73.731 14 71.731 14Z" fill="#9C27B0"/>
<path d="M71.731 12C69.991 12 68.321 12.81 67.231 14.09C66.141 12.81 64.471 12 62.731 12C59.651 12 57.231 14.42 57.231 17.5C57.231 21.28 60.631 24.36 65.781 29.04L67.231 30.35L68.681 29.03C73.831 24.36 77.231 21.28 77.231 17.5C77.231 14.42 74.811 12 71.731 12ZM67.331 27.55L67.231 27.65L67.131 27.55C62.371 23.24 59.231 20.39 59.231 17.5C59.231 15.5 60.731 14 62.731 14C64.271 14 65.771 14.99 66.301 16.36H68.171C68.691 14.99 70.191 14 71.731 14C73.731 14 75.231 15.5 75.231 17.5C75.231 20.39 72.091 23.24 67.331 27.55Z" fill="#9C27B0"/>
</g>
<defs>
<clipPath id="clip0_1075_13887">
<rect width="24" height="24" fill="white" transform="translate(55.231 9)"/>
</clipPath>
</defs>
</svg>
