<svg width="87" height="85" viewBox="0 0 87 85" fill="none" xmlns="http://www.w3.org/2000/svg">
<rect x="16.0791" y="15.341" width="54.0732" height="54.0732" rx="27.0366" fill="#D0E4FC"/>
<path fill-rule="evenodd" clip-rule="evenodd" d="M42.8231 45.1569L42.4981 44.2923C42.0648 43.2116 41.9564 43.3197 42.9314 43.9681L45.9647 46.0214C47.6979 47.2102 47.373 46.8859 45.423 48.0747L41.5231 50.5603C40.5482 51.2087 40.5482 51.3167 41.0898 50.2361L41.6315 48.9392C39.0315 49.0473 36.3233 49.0473 33.615 48.7231C36.7566 49.3715 37.7316 49.5876 40.6565 49.6957L40.0065 51.5329C82.6885 33.9178 53.9811 36.0792 40.6565 39.6454L41.1981 40.5099C41.7398 41.4826 41.8481 41.3745 40.7648 40.9422L37.4066 39.4293C35.4566 38.5647 35.89 38.8889 37.6232 37.376L40.9815 34.242C41.8481 33.4855 41.7398 33.3775 41.4148 34.5662L41.0898 35.863C43.5814 35.3227 46.398 34.7823 48.9979 34.6743C45.8563 34.5662 44.773 34.5662 41.8481 34.9985L42.2814 32.9452C22.0237 42.131 13.0323 49.5876 42.8231 45.1569Z" fill="#06186E"/>
</svg>
