<svg width="87" height="85" viewBox="0 0 87 85" fill="none" xmlns="http://www.w3.org/2000/svg">
<rect x="16.541" y="15.341" width="54.0732" height="54.0732" rx="27.0366" fill="#D0E4FC"/>
<path fill-rule="evenodd" clip-rule="evenodd" d="M43.285 45.1569L42.96 44.2923C42.5267 43.2116 42.4184 43.3197 43.3933 43.9681L46.4266 46.0214C48.1599 47.2102 47.8349 46.8859 45.8849 48.0747L41.985 50.5603C41.0101 51.2087 41.0101 51.3167 41.5517 50.2361L42.0934 48.9392C39.4935 49.0473 36.7852 49.0473 34.077 48.7231C37.2185 49.3715 38.1935 49.5876 41.1184 49.6957L40.4684 51.5329C83.1505 33.9178 54.443 36.0792 41.1184 39.6454L41.6601 40.5099C42.2017 41.4826 42.31 41.3745 41.2267 40.9422L37.8685 39.4293C35.9186 38.5647 36.3519 38.8889 38.0852 37.376L41.4434 34.242C42.31 33.4855 42.2017 33.3775 41.8767 34.5662L41.5517 35.863C44.0433 35.3227 46.8599 34.7823 49.4598 34.6743C46.3182 34.5662 45.2349 34.5662 42.31 34.9985L42.7434 32.9452C22.4856 42.131 13.4942 49.5876 43.285 45.1569Z" fill="#06186E"/>
<rect x="50.4619" y="4" width="34" height="34" rx="17" fill="white"/>
<g clip-path="url(#clip0_1075_13898)">
<path opacity="0.3" d="M67.4618 24.4L63.7018 26.67L64.7018 22.39L61.3818 19.51L65.7618 19.13L67.4618 15.1L69.1718 19.14L73.5518 19.52L70.2318 22.4L71.2318 26.68L67.4618 24.4Z" fill="#D0FCDF"/>
<path d="M77.4619 18.24L70.2719 17.62L67.4619 11L64.6519 17.63L57.4619 18.24L62.9219 22.97L61.2819 30L67.4619 26.27L73.6419 30L72.0119 22.97L77.4619 18.24ZM67.4619 24.4L63.7019 26.67L64.7019 22.39L61.3819 19.51L65.7619 19.13L67.4619 15.1L69.1719 19.14L73.5519 19.52L70.2319 22.4L71.2319 26.68L67.4619 24.4Z" fill="#2E7D32"/>
</g>
<defs>
<clipPath id="clip0_1075_13898">
<rect width="24" height="24" fill="white" transform="translate(55.4619 9)"/>
</clipPath>
</defs>
</svg>
